<svg width="2258" height="2258" xmlns="http://www.w3.org/2000/svg" clip-path="url(#presentation_clip_path)" preserveAspectRatio="xMidYMid">
 <defs>
  <clipPath clipPathUnits="userSpaceOnUse" id="presentation_clip_path">
   <rect id="svg_1" height="2258" width="2258" y="-1.818162" x="-3.636324"/>
  </clipPath>
  <filter height="200%" width="200%" y="-50%" x="-50%" id="svg_159_blur">
   <feGaussianBlur stdDeviation="0" in="SourceGraphic"/>
  </filter>
 </defs>
 <defs>
  <g id="svg_2"/>
 </defs>
 <defs>
  <g transform="scale(0.00048828125,-0.00048828125) " id="bullet-char-template(57356)">
   <path id="svg_3" d="m580,1141l583,-570l-583,-571l-584,571l584,570z"/>
  </g>
  <g transform="scale(0.00048828125,-0.00048828125) " id="bullet-char-template(57354)">
   <path id="svg_4" d="m8,1128l1129,0l0,-1128l-1129,0l0,1128z"/>
  </g>
  <g transform="scale(0.00048828125,-0.00048828125) " id="bullet-char-template(10146)">
   <path id="svg_5" d="m174,0l428,739l-428,742l1282,-742l-1282,-739zm1184,739l-1049,607l350,-607l699,0z"/>
  </g>
  <g transform="scale(0.00048828125,-0.00048828125) " id="bullet-char-template(10132)">
   <path id="svg_6" d="m2015,739l-739,-739l-559,0l543,543l-1086,0l0,393l1086,0l-543,545l557,0l741,-742z"/>
  </g>
  <g transform="scale(0.00048828125,-0.00048828125) " id="bullet-char-template(10007)">
   <path id="svg_7" d="m0,-2c-7,16 -16,29 -25,39l381,530c-94,256 -141,385 -141,387c0,25 13,38 40,38c9,0 21,-2 34,-5c21,4 42,12 65,25l27,-13l111,-251l280,301l64,-25l24,25c21,-10 41,-24 62,-43c-36,-69 -87,-143 -152,-222c-1,-1 -60,-68 -176,-200l180,-361c0,-27 -21,-55 -63,-84l16,-20c-10,-29 -28,-43 -55,-43c-31,0 -102,102 -215,305l-293,-457c-22,-34 -53,-51 -92,-51c-42,0 -63,17 -64,51c-7,9 -10,24 -10,44c0,9 1,19 2,30z"/>
  </g>
  <g transform="scale(0.00048828125,-0.00048828125) " id="bullet-char-template(10004)">
   <path id="svg_8" d="m285,-33c-103,0 -174,63 -211,189c-22,72 -33,177 -33,315c0,78 14,145 41,201c34,71 87,106 158,106c53,0 88,-31 106,-94l23,-176c8,-64 28,-97 59,-98l735,706c11,11 33,17 66,17c42,0 63,-15 63,-46l0,-122c0,-36 -10,-64 -30,-84l-820,-834c-52,-53 -104,-80 -157,-80z"/>
  </g>
  <g transform="scale(0.00048828125,-0.00048828125) " id="bullet-char-template(9679)">
   <path id="svg_9" d="m813,0c-181,0 -324,54 -430,161c-107,107 -160,250 -160,431c0,181 53,324 160,431c106,107 249,161 430,161c179,0 323,-54 432,-161c108,-107 162,-251 162,-431c0,-180 -54,-324 -162,-431c-109,-107 -253,-161 -432,-161z"/>
  </g>
  <g transform="scale(0.00048828125,-0.00048828125) " id="bullet-char-template(8226)">
   <path id="svg_10" d="m346,457c-73,0 -137,26 -191,78c-54,51 -81,114 -81,188c0,73 27,136 81,188c54,52 118,78 191,78c73,0 134,-26 185,-79c51,-51 77,-114 77,-187c0,-75 -25,-137 -76,-188c-50,-52 -112,-78 -186,-78z"/>
  </g>
  <g transform="scale(0.00048828125,-0.00048828125) " id="bullet-char-template(8211)">
   <path id="svg_11" d="m-4,459l1139,0l0,147l-1139,0l0,-147z"/>
  </g>
 </defs>

 <g>
  <title>background</title>
  <rect fill="none" id="canvas_background" height="402" width="582" y="-1" x="-1"/>
 </g>
 <g>
  <title>Layer 1</title>
  <g id="svg_13" class="SlideGroup">
   <g id="svg_16" class="com.sun.star.drawing.ClosedBezierShape">
    <g id="id3">
     <path id="svg_17" d="m911.36411,1653.181838c-51,-15 -102,-45 -145,-87c-64,-64 -84,-132 -78,-265c3,-85 8,-104 59,-213c21,-46 32,-77 28,-80c-3,-2 -29,-21 -56,-41c-79,-57 -99,-64 -165,-60c-66,5 -70,1 -44,-44c25,-44 72,-90 113,-109c69,-33 167,-18 269,42l42,26l70,-61c140,-121 304,-220 500,-301c73,-31 103,-40 150,-46c41,-5 60,-5 64,0c11,10 4,16 -58,55c-112,72 -263,205 -451,400l-96,100l33,24c109,78 350,211 509,281c110,47 110,48 20,108c-209,138 -425,241 -565,271c-57,12 -155,12 -199,0zm189,-19c138,-27 353,-129 560,-266c32,-21 57,-40 57,-42c0,-3 -25,-16 -57,-29c-186,-78 -564,-296 -564,-325c0,-11 107,-131 178,-201c123,-120 268,-246 353,-304l50,-34l-39,4c-57,6 -215,73 -346,146c-96,53 -185,115 -274,192c-43,37 -80,67 -83,67c-3,0 -24,-12 -48,-26c-60,-36 -131,-59 -183,-59c-53,1 -91,18 -132,58c-29,29 -57,69 -53,74c2,2 15,0 30,-4c31,-7 75,1 108,18c24,12 139,95 144,104c2,3 -12,37 -30,75c-58,117 -63,136 -63,250c1,126 10,154 71,216c66,68 129,94 222,95c28,0 73,-4 99,-9zm-95,-54c-31,-7 -74,-28 -94,-47c-36,-33 -55,-115 -45,-189c6,-42 60,-177 75,-186c8,-5 24,5 73,45c155,126 262,161 470,151c155,-7 154,-7 157,1c3,8 -119,76 -223,124c-170,78 -332,118 -413,101zm200,-41c78,-22 169,-59 285,-117l98,-49l-142,0c-127,0 -147,-2 -191,-14c-75,-21 -165,-71 -238,-129c-35,-28 -65,-51 -67,-51c-5,0 -42,85 -55,126c-9,26 -11,48 -9,96c4,89 25,125 90,150c37,15 158,9 229,-12z" fill="rgb(255,255,255)"/>
    </g>
   </g>
   <g id="svg_18" class="com.sun.star.drawing.ClosedBezierShape">
    <g id="id4">
     <path id="svg_19" d="m918.36411,1631.181838c-18,-5 -40,-13 -50,-18c-45,-23 -107,-80 -131,-121c-18,-31 -24,-72 -25,-164c0,-102 5,-122 52,-224c19,-41 35,-80 37,-87c3,-11 0,-14 -24,-33c-47,-37 -116,-83 -139,-91c-18,-7 -34,-9 -69,-9l-46,1l10,-17c16,-27 69,-77 95,-89c70,-32 138,-22 252,37l56,29l23,-17c13,-10 51,-41 85,-69c116,-95 198,-148 338,-217c128,-64 236,-104 278,-105c4,0 -18,18 -47,39c-163,119 -412,353 -502,473l-19,24l11,11c48,52 353,225 555,315c29,14 53,27 52,29c-4,12 -150,104 -261,164c-131,72 -284,131 -369,143c-49,8 -125,5 -162,-4zm244,-59c124,-28 311,-107 442,-186c62,-38 61,-38 -92,-34c-246,6 -317,-15 -486,-143c-71,-54 -74,-56 -84,-52c-9,3 -38,64 -60,127c-16,46 -18,53 -18,102c0,109 31,159 119,190c23,8 34,9 83,7c32,-1 74,-6 96,-11z" fill="rgb(255,255,255)"/>
    </g>
   </g>
   <g id="svg_20" class="com.sun.star.drawing.ClosedBezierShape">
    <g id="id5">
     <path id="svg_21" d="m520.36411,889.181838c-2,-6 22,-40 46,-66c44,-46 84,-65 140,-65c42,0 97,15 149,41c14,7 52,28 51,29c0,0 -13,-6 -28,-14c-15,-7 -33,-16 -40,-19c-81,-36 -136,-43 -191,-24c-19,6 -30,13 -48,26c-19,16 -42,39 -56,55c-6,8 -20,30 -20,33c0,0 5,0 16,0l16,0l-12,2c-16,3 -22,4 -23,2z" fill="rgb(255,255,255)"/>
    </g>
   </g>
   <g id="svg_22" class="com.sun.star.drawing.ClosedBezierShape">
    <g id="id6">
     <path id="svg_23" d="m692.36411,1413.181838c-4,-34 -5,-75 -3,-125c2,-44 6,-66 15,-94c5,-18 18,-50 35,-87c26,-56 37,-85 38,-95c0,-2 0,-3 0,-4c-1,0 -53,-38 -69,-49c-66,-47 -88,-55 -146,-52c-39,2 -42,2 -49,2c-8,-2 -12,-3 -15,-6c-4,-4 -2,-11 7,-29c12,-24 26,-43 47,-65c31,-32 62,-53 93,-63c20,-6 35,-8 60,-8c29,0 53,4 85,14c38,11 69,26 125,59c20,12 20,12 22,10c3,-3 66,-57 79,-68c134,-114 291,-209 476,-287c86,-37 117,-46 176,-53c29,-3 45,-3 50,1c2,2 2,2 2,7l0,6l-5,4c-6,6 -14,12 -31,23c-62,40 -87,58 -131,93c-105,84 -213,186 -384,364c-58,60 -56,58 -56,59c3,3 48,34 62,44c92,61 243,146 380,213c37,18 66,32 109,51c16,7 36,16 43,20l13,6l0,24l0,23l-9,6c-14,10 -60,40 -86,57l-4,2l-17,0l-16,0l12,-8c57,-35 113,-73 118,-81c1,-1 0,-1 -2,-3c-5,-4 -26,-15 -60,-29c-42,-19 -69,-31 -113,-53c-162,-80 -353,-192 -422,-245c-10,-8 -21,-19 -23,-22c-1,-2 -1,-3 0,-6c4,-7 22,-29 47,-58c41,-47 77,-85 124,-132c96,-96 214,-201 305,-271c30,-23 40,-30 81,-59c13,-8 23,-15 22,-16c-1,0 -30,3 -42,5c-26,3 -66,16 -118,37c-75,30 -172,77 -243,118c-89,51 -165,105 -256,182c-43,37 -68,57 -79,64l-3,3l-5,-2c-5,-2 -22,-12 -45,-25c-36,-21 -70,-35 -105,-45c-33,-10 -56,-13 -83,-12c-35,1 -63,9 -89,27c-14,9 -22,16 -37,31c-21,21 -41,46 -50,63c-4,8 -4,11 -1,11c2,1 12,0 25,-3c6,-1 13,-2 17,-3c4,0 0,0 -16,0c-13,0 -23,0 -23,0c0,-1 10,-18 13,-21c13,-20 47,-54 72,-72c11,-8 18,-11 29,-16c46,-18 90,-18 148,1c32,10 60,23 121,54c16,8 29,15 29,15c2,0 40,-30 86,-68c110,-89 162,-127 242,-173c107,-61 248,-126 332,-153c30,-10 64,-16 63,-13c-1,2 -16,14 -48,38c-37,28 -56,43 -78,61c-96,77 -198,170 -288,262c-66,66 -107,113 -144,161l-9,13l7,7c3,4 9,9 11,12c70,60 340,212 538,303c34,15 56,27 60,32c1,1 1,1 -1,4c-9,9 -55,40 -111,74l-18,11l-13,0l-13,0l11,-6c16,-9 41,-24 55,-32c20,-13 26,-18 25,-23c-1,-2 -3,-2 -2,0c0,1 -1,2 -2,4c-7,7 -41,28 -82,50l-13,7l-20,0l-20,0l43,-21l43,-21l-115,-1c-129,-1 -154,-1 -179,-5c-57,-9 -133,-41 -206,-87c-30,-19 -44,-29 -87,-63c-32,-25 -45,-34 -50,-37l-3,-2l-2,2c-4,5 -28,58 -42,94c-18,46 -21,62 -20,110c0,14 1,27 1,28l1,3l-11,0l-11,0l-1,-8c0,-4 0,-17 0,-29c1,-30 2,-40 10,-67c12,-38 31,-86 47,-120c9,-18 13,-26 18,-31c4,-4 7,-4 17,1c10,4 20,12 55,40c33,27 51,40 72,54c81,56 153,84 242,95c34,4 48,5 99,5c41,0 55,-1 104,-3c92,-4 91,-4 -3,-2c-51,1 -126,1 -151,-1c-115,-6 -180,-27 -273,-88c-20,-13 -44,-30 -88,-62c-51,-39 -57,-43 -65,-44c-6,-1 -9,1 -14,7c-15,22 -38,74 -58,133c-12,36 -12,40 -12,86l-1,34l-73,0l-74,0l-1,-3c-2,-12 -2,-30 -3,-73c0,-66 1,-92 7,-119c6,-29 14,-50 46,-122c36,-79 38,-85 35,-92c-2,-5 -5,-8 -15,-17c-39,-31 -105,-77 -137,-93c-16,-8 -30,-11 -47,-12l-10,-1l7,1c10,2 16,3 25,6c19,5 32,11 52,24c32,21 95,67 117,85l8,7l-1,4c-1,9 -13,37 -40,94c-37,76 -47,106 -50,160c-2,29 -1,128 1,148l1,3l-10,0l-9,0l-1,-3zm-102,-529c-2,0 -4,0 -5,0c-1,0 0,0 3,0c2,0 3,0 2,0z" fill="rgb(255,255,255)"/>
    </g>
   </g>
   <g id="svg_24" class="com.sun.star.drawing.ClosedBezierShape">
    <g id="id7">
     <path id="svg_25" d="m909.36411,832.181838c-15,-8 -27,-14 -27,-14c0,0 4,2 9,4c8,4 13,7 14,7c0,0 -1,-1 -3,-2c-1,-1 -2,-2 -2,-2c0,0 1,1 3,2c15,9 29,15 31,16c1,0 2,-1 6,-3c11,-8 38,-30 69,-57c19,-15 25,-21 33,-27c51,-43 101,-80 153,-114c9,-6 26,-16 32,-20l4,-3l3,0l3,0l-1,1c-3,1 -12,7 -18,11c-53,33 -104,70 -165,120c-5,4 -15,13 -23,19c-26,21 -52,42 -65,53c-7,5 -29,23 -30,23c0,0 -12,-7 -26,-14z" fill="rgb(255,255,255)"/>
    </g>
   </g>
   <g id="svg_26" class="com.sun.star.drawing.ClosedBezierShape">
    <g id="id8">
     <path id="svg_27" d="m1093.36411,974.181838l-1,-1l9,-12c19,-25 28,-36 44,-55c25,-30 54,-61 92,-99l7,-7l0,1l0,2l-6,5c-40,42 -92,99 -119,133c-15,18 -23,29 -23,32c0,0 0,1 1,2l0,1l-1,0l-1,0l-2,-2z" fill="rgb(255,255,255)"/>
    </g>
   </g>
   <g id="svg_28" class="com.sun.star.drawing.ClosedBezierShape">
    <g id="id9">
     <path id="svg_29" d="m1200.36411,1054.181838c-39,-24 -64,-41 -81,-56c-9,-7 -13,-10 -20,-17l-5,-6l1,0c1,0 1,0 2,1c0,0 1,1 1,2c2,2 8,8 12,11c16,15 48,37 88,62c4,3 8,5 8,5c0,0 -1,0 -2,0l-2,0l-2,-2z" fill="rgb(255,255,255)"/>
    </g>
   </g>
   <g id="svg_30" class="com.sun.star.drawing.ClosedBezierShape">
    <g id="id10">
     <path id="svg_31" d="m799.36411,1004.181838c-12,-12 -72,-56 -114,-85c-15,-9 -24,-15 -31,-18c-17,-8 -33,-13 -53,-17c-1,0 -1,0 1,0c6,0 17,2 23,4c9,2 14,4 23,8c29,15 83,52 125,84c15,11 22,18 26,22c1,1 2,3 2,3c0,0 -1,0 -2,-1z" fill="rgb(255,255,255)"/>
    </g>
   </g>
   <g id="svg_32" class="com.sun.star.drawing.ClosedBezierShape">
    <g id="id11">
     <path id="svg_33" d="m1243.36411,802.181838c0,-2 44,-46 78,-78c54,-51 119,-109 175,-156c39,-33 68,-56 111,-88c15,-11 31,-23 35,-26c11,-9 19,-16 18,-17c0,-1 -2,-1 -4,-1c-4,1 -2,0 4,0c13,-2 16,-2 16,-2c-1,0 -11,7 -23,15c-43,30 -58,40 -89,65c-86,67 -210,177 -299,266c-13,14 -22,22 -22,22z" fill="rgb(255,255,255)"/>
    </g>
   </g>
   <g id="svg_34" class="com.sun.star.drawing.ClosedBezierShape">
    <g id="id12">
     <path id="svg_35" d="m1371.36411,544.181838l0,-3l11,-5c90,-45 180,-81 231,-94c13,-3 18,-4 35,-6c10,-1 15,-1 9,-1c-3,1 -4,1 -3,1c1,0 0,0 -1,0c-30,3 -81,20 -149,49c-39,16 -88,38 -127,58c-3,2 -6,3 -6,3c0,0 0,-1 0,-2z" fill="rgb(255,255,255)"/>
    </g>
   </g>
   <g id="svg_36" class="com.sun.star.drawing.ClosedBezierShape">
    <g id="id13">
     <path id="svg_37" d="m1505.36411,563.181838c1,-1 16,-13 23,-19c37,-30 69,-55 96,-73c2,-2 15,-10 28,-19c13,-9 24,-17 24,-17c1,-1 1,-1 1,-1l0,0c-1,0 -9,1 -20,2c-19,2 -23,2 -28,3c-30,6 -80,23 -142,49c-14,6 -32,14 -45,20c-2,1 -3,1 -3,1c0,0 0,-4 0,-10l0,-10l6,-3c18,-8 44,-19 65,-28c67,-28 97,-37 139,-43c6,0 18,-2 23,-2c7,-1 10,-1 17,-2l1,0l0,20l0,20l-5,3c-2,2 -9,6 -14,10c-29,18 -40,26 -60,40c-23,16 -50,38 -73,57l-4,2l-14,0c-15,0 -15,0 -15,0z" fill="rgb(255,255,255)"/>
    </g>
   </g>
   <g id="svg_38" class="com.sun.star.drawing.ClosedBezierShape">
    <g id="id14">
     <path id="svg_39" d="m1242.36411,614.181838l0,-2l8,-4c35,-21 72,-42 114,-63c4,-2 8,-4 8,-4c0,0 0,1 0,2l0,3l-7,3c-42,21 -83,44 -117,64c-3,2 -6,3 -6,3c0,0 0,-1 0,-2z" fill="rgb(255,255,255)"/>
    </g>
   </g>
   <g id="svg_40" class="com.sun.star.drawing.ClosedBezierShape">
    <g id="id15">
     <path id="svg_41" d="m993.36411,1643.181838c0,0 -3,0 -5,0c-31,-1 -60,-6 -85,-14c-13,-4 -24,-9 -36,-15c-11,-5 -19,-10 -29,-16l-3,-2l0,-2l0,-2l3,2c11,8 23,16 31,19c13,6 39,15 54,19c16,3 40,6 67,7c9,0 34,0 43,0c21,-1 37,-3 51,-5l2,0l0,1c0,1 0,1 0,2c0,0 -7,1 -12,1c-18,3 -36,4 -55,5c-3,0 -23,0 -26,0z" fill="rgb(255,255,255)"/>
    </g>
   </g>
   <g id="svg_42" class="com.sun.star.drawing.ClosedBezierShape">
    <g id="id16">
     <path id="svg_43" d="m864.36411,1362.181838c0,-3 0,-10 1,-14c1,-18 4,-29 14,-57c6,-18 11,-30 17,-46l1,-2l1,0c1,0 1,0 1,0c0,0 -1,3 -2,6c-12,30 -23,63 -28,82c-2,9 -4,18 -5,30l0,2l0,-1z" fill="rgb(255,255,255)"/>
    </g>
   </g>
   <g id="svg_44" class="com.sun.star.drawing.ClosedBezierShape">
    <g id="id17">
     <path id="svg_45" d="m746.36411,1510.181838c-23,-31 -32,-59 -35,-111c-2,-18 -2,-39 -2,-74c0,-40 1,-58 3,-77c0,-2 0,-5 0,-5l2,0l2,0l-1,3c-1,10 -2,23 -2,40c-1,10 -1,68 0,79c1,42 4,68 9,90c6,21 14,36 28,55c1,1 1,2 1,2c1,0 0,0 -1,0l-2,0l-2,-2z" fill="rgb(255,255,255)"/>
    </g>
   </g>
   <g id="svg_46" class="com.sun.star.drawing.ClosedBezierShape">
    <g id="id18">
     <path id="svg_47" d="m892.36411,1511.181838c-11,-17 -19,-39 -24,-65c-1,-9 -3,-29 -3,-30l0,0c0,1 0,3 1,5c3,30 11,58 22,80c2,3 4,8 6,11l1,1l-1,0l-1,0l-1,-2z" fill="rgb(255,255,255)"/>
    </g>
   </g>
   <g id="svg_48" class="com.sun.star.drawing.ClosedBezierShape">
    <g id="id19">
     <path id="svg_49" d="m712.36411,1242.181838c5,-42 17,-73 55,-150c20,-41 31,-66 35,-80c0,-2 0,-2 0,-1c0,4 -1,8 -8,24c-7,18 -18,43 -35,79c-24,51 -34,79 -40,107c-1,5 -3,17 -3,20l0,2l-2,0l-2,0l0,-1z" fill="rgb(255,255,255)"/>
    </g>
   </g>
   <g id="svg_50" class="com.sun.star.drawing.ClosedBezierShape">
    <g id="id20">
     <path id="svg_51" d="m897.36411,1244.181838c-1,0 -1,0 -1,0c0,0 2,-6 5,-12c14,-34 28,-61 35,-71c2,-2 4,-4 4,-4c1,-1 3,-2 5,-2c2,0 6,0 10,3c8,4 21,13 59,42c15,11 27,20 31,24l4,2l0,3l0,2l-2,-1c0,-1 -2,-2 -3,-3c-7,-5 -22,-17 -35,-28c-35,-29 -52,-40 -61,-42c-1,0 -2,0 -3,0c-1,0 -2,0 -2,0c-1,0 -2,1 -2,1c-7,4 -21,33 -38,74c-2,5 -4,9 -4,10c-1,1 -1,2 -1,2l-1,0z" fill="rgb(255,255,255)"/>
    </g>
   </g>
   <g id="svg_52" class="com.sun.star.drawing.ClosedBezierShape">
    <g id="id21">
     <path id="svg_53" d="m823.36411,1587.181838c0,0 -1,-1 -3,-2c-16,-13 -32,-27 -50,-46c-9,-9 -17,-18 -22,-26l-2,-2l2,0c1,0 2,0 2,0c0,0 0,1 1,2c20,25 49,53 77,74l1,1l-3,0c-2,0 -2,0 -3,-1z" fill="rgb(255,255,255)"/>
    </g>
   </g>
   <g id="svg_54" class="com.sun.star.drawing.ClosedBezierShape">
    <g id="id22">
     <path id="svg_55" d="m832.36411,1594.181838c-4,-3 -9,-7 -9,-7c0,0 1,0 3,0l2,0l3,2c1,1 3,2 4,3l1,1l0,2c0,1 0,2 0,2c0,0 -2,-2 -4,-3z" fill="rgb(255,255,255)"/>
    </g>
   </g>
   <g id="svg_56" class="com.sun.star.drawing.ClosedBezierShape">
    <g id="id23">
     <path id="svg_57" d="m948.36411,1560.181838c-14,-7 -27,-16 -37,-26c-6,-6 -10,-11 -14,-16c-2,-2 -5,-6 -5,-7l1,0l1,0l1,1c1,2 3,6 5,8c3,4 6,8 10,12c7,6 17,13 29,21c4,2 9,5 11,6l1,0l0,1c0,1 0,2 0,2c0,0 -1,-1 -3,-2z" fill="rgb(255,255,255)"/>
    </g>
   </g>
   <g id="svg_58" class="com.sun.star.drawing.ClosedBezierShape">
    <g id="id24">
     <path id="svg_59" d="m1396.36411,1355.181838c-8,0 -17,0 -19,0c-3,0 -8,-1 -11,-1c-2,0 -8,-1 -13,-1c-84,-7 -153,-28 -222,-68c-9,-5 -16,-10 -16,-10c0,0 0,-1 0,-2l0,-2l5,3c75,47 138,68 229,75c16,1 30,2 52,3c14,0 73,0 91,0c62,-2 101,-3 88,-2c-28,1 -42,2 -68,3c-49,2 -49,2 -77,2c-14,0 -32,0 -39,0z" fill="rgb(255,255,255)"/>
    </g>
   </g>
   <g id="svg_60" class="com.sun.star.drawing.ClosedBezierShape">
    <g id="id25">
     <path id="svg_61" d="m1288.36411,1533.181838c1,0 6,-2 10,-4c31,-11 65,-25 98,-39c68,-30 160,-78 212,-110c4,-2 8,-4 8,-4l1,-1l0,1c0,1 0,1 -2,2c-21,13 -29,17 -42,25c-28,16 -57,31 -88,47c-61,29 -119,55 -180,78c-13,4 -16,6 -17,6l-2,0l2,-1z" fill="rgb(255,255,255)"/>
    </g>
   </g>
   <g id="svg_62" class="com.sun.star.drawing.ClosedBezierShape">
    <g id="id26">
     <path id="svg_63" d="m1608.36411,1276.181838c-69,-33 -145,-72 -219,-112c-18,-11 -19,-11 -18,-11c2,0 2,0 18,9c82,45 165,88 222,114c5,2 6,2 6,3c0,1 0,1 0,1c-1,0 -5,-2 -9,-4z" fill="rgb(255,255,255)"/>
    </g>
   </g>
   <g id="svg_64" class="com.sun.star.drawing.ClosedBezierShape">
    <g id="id27">
     <path id="svg_65" d="m1112.36411,1274.181838c-18,-11 -41,-27 -61,-42l-3,-3l0,-2c0,-1 0,-2 0,-2c0,0 2,1 3,2c10,8 29,21 41,29c6,4 19,13 22,15l1,1l0,2c0,1 0,2 0,2c0,0 -1,-1 -3,-2z" fill="rgb(255,255,255)"/>
    </g>
   </g>
   <g id="svg_66" class="com.sun.star.drawing.ClosedBezierShape">
    <g id="id28">
     <path id="svg_67" d="m1022.36411,1584.181838c-14,-1 -22,-2 -35,-7c-12,-4 -27,-10 -36,-15l-1,-1l0,-1l0,-1c0,0 1,0 2,1c8,4 22,10 32,14c16,6 29,9 47,10c1,0 1,0 -3,0c-2,0 -5,0 -6,0z" fill="rgb(255,255,255)"/>
    </g>
   </g>
   <g id="svg_68" class="com.sun.star.drawing.ClosedBezierShape">
    <g id="id29">
     <path id="svg_69" d="m1108.36411,1579.181838c40,-6 85,-16 133,-32c6,-1 21,-7 23,-7l0,1l0,0l-13,5c-27,9 -50,15 -72,21c-21,6 -34,8 -56,11c-8,1 -19,2 -20,2c0,0 2,0 5,-1z" fill="rgb(255,255,255)"/>
    </g>
   </g>
   <g id="svg_70" class="com.sun.star.drawing.ClosedBezierShape">
    <g id="id30">
     <path id="svg_71" d="m1086.36411,1635.181838c0,-1 0,-1 0,-1c0,0 3,-1 6,-1c39,-7 90,-23 149,-46c5,-2 18,-7 21,-8l2,-1l0,2l0,2l-6,2c-50,21 -98,36 -138,46c-11,3 -25,5 -32,6l-2,1l0,-2z" fill="rgb(255,255,255)"/>
    </g>
   </g>
   <g id="svg_72" class="com.sun.star.drawing.ClosedBezierShape">
    <g id="id31">
     <path id="svg_73" d="m1233.36411,619.181838l-2,0l3,-2c1,0 4,-2 6,-4l4,-2l0,2c0,1 0,2 0,2c0,0 -2,1 -3,2l-4,2l-1,0c-1,0 -2,0 -3,0z" fill="rgb(255,255,255)"/>
    </g>
   </g>
   <g id="svg_74" class="com.sun.star.drawing.ClosedBezierShape">
    <g id="id32">
     <path id="svg_75" d="m1243.36411,802.181838l0,-1l14,-14c17,-17 21,-21 34,-33c12,-12 24,-23 35,-34c14,-13 16,-15 16,-15c0,0 -4,4 -10,9c-32,31 -81,78 -88,86c-1,2 -1,2 -1,2c1,0 4,-4 10,-9c2,-2 3,-3 3,-3c1,0 -1,2 -3,4c-2,2 -5,5 -7,7l-3,3l0,-2z" fill="rgb(255,255,255)"/>
    </g>
   </g>
   <g id="svg_76" class="com.sun.star.drawing.ClosedBezierShape">
    <g id="id33">
     <path id="svg_77" d="m1204.36411,844.181838c0,0 3,-3 6,-7c14,-14 31,-32 44,-45c27,-28 64,-64 103,-100c12,-11 27,-25 27,-25c0,0 0,6 0,14l0,14l-5,4c-15,15 -40,39 -61,60c-20,19 -63,63 -82,82l-4,4l-14,0l-15,0l1,-1z" fill="rgb(255,255,255)"/>
    </g>
   </g>
   <g id="svg_78" class="com.sun.star.drawing.ClosedBezierShape">
    <g id="id34">
     <path id="svg_79" d="m1133.36411,767.181838l0,-78l4,-3c14,-11 29,-21 40,-29l4,-2l102,0l101,0l0,5l0,5l-7,7c-21,19 -57,53 -57,54l0,0c1,-1 6,-5 12,-11c13,-13 29,-27 41,-39c6,-5 10,-9 11,-9l0,-1l0,1l0,0l-5,5c-20,18 -58,54 -58,55l0,0l-1,0c0,0 -1,2 -10,10c-2,2 -5,5 -7,7c-8,7 -20,19 -31,30c-16,15 -21,20 -24,24c-4,3 -4,3 -4,3c-1,0 29,-30 57,-57c3,-3 6,-6 6,-6l0,0c0,0 3,-2 7,-6c4,-4 6,-6 6,-6l0,0c-1,0 -13,12 -13,12l0,0l-1,0c0,0 -36,36 -57,56c-16,17 -39,40 -48,50l-2,2l-33,0l-33,0l0,-79zm71,78c0,0 3,-3 6,-7c12,-12 31,-32 40,-42c16,-16 34,-34 52,-51c3,-2 5,-5 6,-6c3,-3 14,-13 26,-24c11,-10 15,-14 30,-29c7,-6 20,-18 20,-18c0,0 0,6 0,14l0,14l0,0c-1,1 -33,31 -50,48c-27,27 -70,69 -97,97l-4,5l-15,0l-15,0l1,-1z" fill="rgb(255,255,255)"/>
    </g>
   </g>
   <g id="svg_80" class="com.sun.star.drawing.ClosedBezierShape">
    <g id="id35">
     <path id="svg_81" d="m823.36411,920.181838c0,-104 0,-130 0,-130c6,2 19,8 27,12c12,6 19,9 55,28c17,8 31,15 31,15c2,0 41,-31 90,-71c51,-42 70,-57 98,-78c77,-57 150,-101 257,-154c19,-9 45,-22 56,-27l5,-2l45,0l45,0l0,12l0,13l-9,7c-55,45 -138,118 -198,176c-26,25 -47,44 -47,45c0,0 0,1 -1,2c-1,1 3,-3 29,-28c58,-56 127,-118 191,-172c3,-3 5,-4 5,-4c1,0 -2,2 -4,4c-14,12 -46,39 -63,54c-29,26 -65,58 -65,59c0,0 4,-3 7,-6c4,-4 8,-7 9,-8c1,-1 9,-8 17,-16c32,-28 61,-54 93,-80c12,-11 33,-28 35,-30l1,0l0,12l0,11l-6,6c-34,27 -94,81 -130,114c-3,4 -10,10 -14,14c-5,5 -10,10 -13,12c-2,2 -9,9 -14,14c-33,32 -84,83 -131,131c-23,23 -111,114 -111,115c0,0 33,23 47,33c15,11 49,33 68,45l4,3l-17,0l-17,0l-6,-5c-29,-17 -58,-38 -74,-50c-14,-12 -21,-19 -21,-23c0,-4 11,-18 32,-43c15,-19 47,-54 66,-75c5,-5 10,-10 12,-13c2,-2 10,-10 17,-18c7,-7 12,-13 12,-13c1,-2 -44,47 -69,74c-40,45 -68,79 -70,86c-1,1 -1,2 -1,2c0,1 1,1 1,2c0,1 -2,1 -3,-1l-1,-1l3,-5c14,-18 26,-34 33,-42c23,-29 57,-66 95,-105c5,-5 10,-10 10,-11c0,0 -2,2 -4,4c-2,2 -10,10 -17,18c-35,36 -66,70 -88,98c-7,8 -13,17 -25,32l-8,11l2,2c1,2 5,5 7,8c7,8 16,15 30,25c13,10 36,26 54,37l9,6l-186,0l-185,0l0,-131zm422,-118c4,-4 13,-13 19,-19c7,-7 12,-13 12,-13c0,0 -5,5 -12,12c-7,7 -13,12 -13,12c0,0 6,-6 12,-13c7,-6 13,-12 12,-11c-1,0 -41,39 -40,40l1,0c1,0 2,-1 9,-8zm47,-47c8,-7 17,-17 22,-21c4,-4 8,-8 8,-8c0,-1 -6,5 -21,19c-10,10 -24,25 -24,25c0,0 1,-1 15,-15zm45,-42c17,-16 17,-17 17,-17c0,-1 -18,17 -26,24c-9,9 -5,5 9,-7zm20,-20c1,-1 2,-2 2,-2c0,0 -1,1 -2,2c-2,1 -2,2 -2,2c0,0 1,-1 2,-2zm6,-5c1,-1 2,-2 2,-2c0,0 -2,1 -3,2c-1,1 -2,2 -1,2c0,0 1,-1 2,-2zm5,-5c1,-1 2,-2 2,-2c0,0 -1,1 -3,2c-1,1 -1,2 -1,2c1,0 2,-1 2,-2z" stroke-opacity="0.651" stroke="rgb(255,255,255)" fill-opacity="0.651" fill="rgb(255,255,255)"/>
    </g>
   </g>
   <g id="svg_82" class="com.sun.star.drawing.ClosedBezierShape">
    <g id="id36">
     <path id="svg_83" d="m823.36411,920.181838c0,-104 0,-130 0,-130c6,2 19,8 27,12c12,6 20,9 56,28c29,15 30,15 31,15c2,-1 24,-19 40,-31c8,-7 31,-25 51,-42c39,-32 52,-42 68,-55c88,-68 167,-116 285,-175c19,-9 45,-22 56,-27l5,-2l45,0l45,0l0,12l0,13l-9,7c-20,17 -62,52 -83,71c-51,45 -89,80 -138,126c-19,19 -35,34 -34,35c0,0 7,-7 17,-16c67,-67 136,-129 215,-196c1,-1 2,-1 2,-1c1,0 -2,2 -4,4c-9,7 -43,37 -49,42c-4,3 -7,6 -7,6c0,0 1,0 2,-1c9,-8 84,-72 88,-74c0,0 0,2 0,12l0,11l-7,7c-30,24 -70,59 -107,93c-49,46 -110,105 -174,171c-29,29 -131,134 -131,135c0,0 31,22 46,33c16,11 48,32 69,45l4,3l-17,0l-17,0l-3,-3c-29,-17 -61,-40 -77,-52c-14,-12 -21,-19 -21,-23c0,-4 10,-18 32,-43c15,-18 47,-54 66,-75c4,-5 10,-10 12,-13c3,-4 14,-15 34,-36c4,-4 5,-6 4,-6c-1,-1 -49,49 -75,78c-27,30 -44,50 -68,81l-10,14l4,5c3,3 6,6 7,7c2,2 10,10 16,14c14,12 41,30 66,46l9,6l-186,0l-185,0l0,-131zm442,-139c0,0 -3,3 -7,7c-3,3 -7,6 -7,6l-1,1l-1,0c0,0 -1,1 -2,2c-2,2 -2,2 -1,3c0,1 0,1 10,-9c5,-5 9,-10 9,-10zm15,-15c9,-8 15,-14 14,-14c0,1 -29,29 -29,29c1,0 7,-7 15,-15zm35,-33c0,-1 -2,1 -4,3c-12,11 -16,15 -16,16c0,0 5,-4 10,-10c6,-5 10,-9 10,-9zm5,-5c4,-4 3,-4 -2,1c-2,2 -3,3 -2,3c0,0 2,-1 4,-4zm10,-10c0,0 -1,1 -3,3c-1,1 -3,3 -3,3c0,0 2,-1 3,-3c2,-1 3,-3 3,-3zm19,-17c0,-1 -18,16 -18,17c0,0 4,-4 9,-9c5,-4 9,-8 9,-8zm3,-3c3,-3 3,-3 0,0c-2,2 -3,2 -2,2c0,0 1,-1 2,-2zm6,-6c2,-1 2,-2 2,-2c-3,2 -5,5 -4,5c0,0 1,-1 2,-3zm6,-5c1,-1 2,-2 1,-2c-2,2 -5,5 -4,5c0,0 1,-1 3,-3zm7,-6c0,-1 -2,0 -3,2c-1,1 -2,1 -2,2c0,0 1,-1 2,-2c2,-1 3,-2 3,-2zm4,-5c0,0 -1,1 -2,2c-1,1 -2,2 -2,2c0,1 1,0 2,-1c1,-1 2,-2 2,-3zm9,-7c-1,-1 -9,7 -9,7c0,1 2,-1 5,-3c2,-2 4,-4 4,-4zm19,-18c9,-7 21,-18 27,-24c7,-6 12,-10 12,-11c0,0 -2,2 -5,4c-2,3 -9,8 -14,13c-16,14 -38,34 -39,35c0,0 1,0 2,-1c1,-1 9,-8 17,-16z" stroke-opacity="0.012" stroke="rgb(255,255,255)" fill-opacity="0.012" fill="rgb(255,255,255)"/>
    </g>
   </g>
   <g id="svg_84" class="com.sun.star.drawing.ClosedBezierShape">
    <g id="id37">
     <path id="svg_85" d="m1168.36411,741.181838l0,-78l4,-3c14,-9 32,-21 45,-29l3,-2l100,0l99,0l0,2l0,3l-4,4c-15,13 -56,51 -56,51l4,-4c15,-14 56,-51 56,-51l0,1l-1,1c-6,6 -35,32 -44,41c-2,1 -5,4 -7,6c-2,2 -4,4 -5,5c-2,1 -3,2 -3,2l0,0c1,0 1,-1 3,-2c1,-1 3,-3 4,-4c1,-1 6,-5 11,-10c4,-4 10,-9 12,-11c4,-4 29,-26 30,-27l0,0l0,13l0,13l-7,7c-8,7 -22,21 -27,25c-1,2 -4,4 -6,7c-11,9 -29,27 -43,40c-16,16 -26,26 -52,52l-27,27l-15,0l-15,0l1,-1c1,-2 15,-16 20,-21c22,-23 39,-39 66,-65c6,-6 28,-27 32,-31c1,0 2,-1 2,-1l0,0c0,0 2,-2 5,-5c7,-6 6,-6 6,-6c0,0 -2,2 -11,10c-1,1 -3,4 -6,6c-5,5 -17,16 -20,19c-1,1 -2,2 -3,2c-2,3 -18,18 -22,22c-8,7 -10,9 -28,27c-9,9 -18,18 -19,19c-4,3 -6,6 -6,5c0,0 30,-30 57,-57c3,-2 5,-5 6,-5c3,-3 12,-11 13,-13c1,-1 6,-6 12,-11c5,-5 10,-10 11,-11c1,0 2,-1 2,-1c0,0 0,-1 1,-1c0,-1 1,-1 0,-1c-1,1 -16,15 -24,23c-1,1 -3,3 -4,3c-6,6 -11,11 -11,11c0,1 0,1 0,1l0,0c0,-1 -1,0 -4,3c-20,20 -56,55 -73,73l-6,6l-28,0l-28,0l0,-79zm178,-40c1,-1 1,-1 1,-1c0,0 -1,0 -1,1l-1,0c1,0 1,0 1,0zm6,-6c5,-5 7,-6 6,-6l-11,11l0,0c0,0 3,-2 5,-5zm-4,4l0,-1c0,0 0,1 -1,1l0,0l1,0zm2,-2l0,-1c0,0 0,1 -1,1l0,1c0,0 0,-1 1,-1zm2,-2l0,-1c0,0 0,1 -1,1l0,1c0,0 0,-1 1,-1zm2,-2l0,0l-1,0l0,1c0,0 0,-1 1,-1zm2,-2l0,0l-1,0c0,1 0,1 0,1l1,-1zm1,-1c1,-1 1,-1 1,-1c0,0 -1,0 -1,1zm3,-3c0,0 -1,1 -1,2l0,-1c0,0 1,0 1,-1zm1,-1l-1,1c0,0 1,0 1,-1zm2,-2l-1,1l1,0c0,-1 0,-1 0,-1zm2,-2l-1,1c0,1 0,0 1,0l0,-1zm2,-1l-1,1l0,-1c1,0 1,0 1,0zm2,-2l-1,1l0,0c1,-1 1,-1 1,-1zm1,-1c0,-1 1,0 0,0zm2,-2l-1,1l1,0c0,-1 0,-1 0,-1zm2,-1l-1,0c0,1 0,0 0,0c1,0 1,0 1,0zm1,-2l-1,1l1,0c0,-1 0,-1 0,-1zm2,-1c0,0 -1,0 -1,1l0,-1c1,0 1,0 1,0zm2,-2c-1,0 -2,1 -2,1l1,0c0,-1 1,-1 1,-1zm1,-1c0,0 -1,0 -1,1l1,-1zm2,-2l-1,1l0,0c1,0 1,-1 1,-1zm1,-1l-1,1c0,0 1,0 1,-1zm2,-2l-1,1l0,0c1,0 1,-1 1,-1zm2,-1c-1,0 -2,1 -2,1c0,0 1,0 1,-1l1,0zm1,-2l-1,1c0,1 0,0 1,0l0,-1zm2,-1c-1,0 -1,1 -1,1l0,0c0,-1 1,-1 1,-1zm1,-1c0,0 -1,0 -1,1l1,-1zm1,-1c0,-1 -1,0 -1,0c0,1 1,0 1,0zm2,-2l-1,1l0,0c1,0 1,-1 1,-1zm1,-1l-1,1l1,0c0,-1 0,-1 0,-1zm2,-1c0,0 -1,0 -1,1l0,-1l1,0zm1,-2l-1,1l1,0l0,-1zm1,-1l-1,1l1,0c0,-1 0,-1 0,-1zm2,-1l-1,1l0,-1c1,0 1,0 1,0zm1,-1c0,-1 -1,0 -1,0l1,0zm2,-2l-1,1l0,0c1,0 1,-1 1,-1zm1,-1l-1,1l1,0c0,-1 0,-1 0,-1zm1,-1l0,1l0,-1zm2,-1l-1,0c0,1 0,0 0,0c1,0 1,0 1,0zm1,-1l-1,0l1,0zm1,-2l-1,1l1,0l0,-1zm2,-1c-1,0 -1,1 -1,1l0,0l1,-1zm1,-1l-1,1l0,0c1,-1 1,-1 1,-1zm1,-1l-1,1l1,-1zm1,-1l0,1l0,-1zm2,-1c-1,0 -1,0 -1,1l0,-1l1,0zm1,-1c0,-1 -1,0 -1,0c0,1 0,0 1,0zm1,-2l-1,1l1,0l0,-1z" stroke-opacity="0.012" stroke="rgb(255,255,255)" fill-opacity="0.012" fill="rgb(255,255,255)"/>
    </g>
   </g>
   <g id="svg_86" class="com.sun.star.drawing.ClosedBezierShape">
    <g id="id38">
     <path id="svg_87" d="m1168.36411,741.181838l0,-78l4,-3c14,-9 32,-21 45,-29l3,-2l100,0l99,0l0,2l0,2l-6,6c-6,5 -23,20 -27,24c-1,1 -5,5 -9,9c-17,15 -38,34 -38,35l0,0l0,0c0,0 -1,0 -2,1c-2,2 -11,11 -15,15c-1,1 -3,3 -4,3c-6,6 -11,11 -11,11c0,1 0,1 0,1l0,0c0,-1 -1,0 -4,3c-20,20 -56,55 -73,73l-6,6l-28,0l-28,0l0,-79zm60,78c1,-2 15,-16 20,-21c17,-18 26,-26 44,-44c10,-10 26,-25 33,-31c2,-2 3,-4 4,-4l0,0l11,-11l0,0l-12,11l0,0c0,0 -2,2 -6,6c-1,1 -2,2 -3,2c-2,3 -18,18 -22,22c-8,7 -10,9 -28,27c-9,9 -18,18 -19,19c-4,3 -6,6 -6,5c0,0 30,-30 57,-57c3,-2 5,-5 6,-5c1,-1 4,-4 5,-5c2,-2 5,-5 6,-6c1,-1 3,-3 4,-4c2,-1 4,-3 5,-4c21,-20 46,-43 69,-64c12,-11 23,-21 23,-21l0,1l-1,1c-6,5 -36,33 -43,40c-2,1 -4,3 -6,4c-1,2 -3,4 -5,5c-1,1 -3,3 -4,4c-10,9 -20,18 -19,19c0,0 0,-1 1,-1c2,-2 19,-18 22,-21c2,-2 4,-4 4,-4c1,-1 5,-4 9,-8c5,-4 10,-9 12,-11c4,-4 29,-26 30,-27l0,0l0,13l0,13l-7,7c-8,7 -22,21 -27,25c-1,2 -4,4 -6,7c-11,9 -29,27 -43,40c-16,16 -26,26 -52,52l-27,27l-15,0l-15,0l1,-1z" fill="rgb(255,255,255)"/>
    </g>
   </g>
   <g id="svg_88" class="com.sun.star.drawing.ClosedBezierShape">
    <g id="id39">
     <path id="svg_89" d="m1344.36411,703.181838c0,-1 46,-43 68,-63c4,-3 6,-5 7,-6l0,0c0,0 -2,2 -5,5c-9,8 -28,25 -39,35c-11,10 -28,26 -30,28c-1,0 -1,1 -1,1z" fill="rgb(255,255,255)"/>
    </g>
   </g>
   <g id="svg_90" class="com.sun.star.drawing.ClosedBezierShape">
    <g id="id40">
     <path id="svg_91" d="m1243.36411,801.181838c0,0 3,-3 11,-11c11,-12 25,-25 44,-44c4,-3 8,-7 9,-8c3,-3 11,-11 13,-12c1,-1 6,-6 11,-11c16,-15 32,-30 53,-49c8,-8 35,-31 35,-31l0,1l-1,1c-6,5 -38,34 -46,41c-2,2 -4,4 -6,6c-9,8 -22,20 -25,23c-1,1 -2,2 -2,2c0,0 -2,2 -4,3c-4,4 -13,13 -14,14c-1,1 -2,2 -3,3c-3,3 -18,17 -20,19c-11,11 -16,15 -29,28c-18,18 -19,20 -23,22c-2,3 -3,4 -3,3z" fill="rgb(255,255,255)"/>
    </g>
   </g>
   <g id="svg_92" class="com.sun.star.drawing.ClosedBezierShape">
    <g id="id41">
     <path id="svg_93" d="m1671.36411,1358.181838c21,-15 35,-25 38,-29c1,-1 1,-2 -1,-3c-3,-3 -13,-9 -27,-16c-9,-5 -14,-7 -34,-16c-5,-2 -14,-6 -19,-9c-6,-3 -12,-5 -12,-6l-1,0l1,-1l-1,-1l0,0c0,0 1,1 3,1c10,5 26,12 38,17c10,4 15,7 21,9c22,10 39,19 41,21c0,1 0,1 0,1c-1,1 -4,4 -6,5c-7,6 -19,16 -34,26l-5,3l-2,0l-3,0l3,-2z" fill="rgb(255,255,255)"/>
    </g>
   </g>
   <g id="svg_94" class="com.sun.star.drawing.ClosedBezierShape">
    <g id="id42">
     <path id="svg_95" d="m1615.36411,1376.181838l0,-1c0,0 2,-1 4,-3c13,-8 20,-14 22,-17l0,-1c0,-1 0,-1 0,-1l1,1c0,1 0,1 0,2c-1,3 -5,7 -15,14c-2,1 -11,7 -12,7l0,-1z" fill="rgb(255,255,255)"/>
    </g>
   </g>
   <g id="svg_96" class="com.sun.star.drawing.ClosedBezierShape">
    <g id="id43">
     <path id="svg_97" d="m1575.36411,1418.181838c29,-17 64,-39 86,-54l8,-5l2,0l3,0l-7,5c-25,17 -62,40 -88,56l-2,2l-4,0l-3,0l5,-4z" fill="rgb(255,255,255)"/>
    </g>
   </g>
   <g id="svg_98" class="com.sun.star.drawing.ClosedBezierShape">
    <g id="id44">
     <path id="svg_99" d="m1263.36411,1582.181838c0,0 0,-1 0,-2l0,-1l3,-1c1,0 9,-4 17,-7c60,-25 119,-54 177,-86c31,-17 70,-40 102,-59l8,-5l4,0l3,0l-6,4c-74,45 -154,88 -227,122c-26,13 -50,23 -80,36c-1,0 -1,0 -1,-1z" fill="rgb(255,255,255)"/>
    </g>
   </g>
   <g id="svg_100" class="com.sun.star.drawing.ClosedBezierShape">
    <g id="id45">
     <path id="svg_101" d="m1339.36411,1561.181838l0,-11l8,-4c16,-7 35,-16 53,-25c15,-8 21,-12 21,-12l-2,1c-13,7 -37,19 -55,28c-9,4 -25,12 -25,12c0,0 0,-1 0,-2l0,-1l6,-3c24,-11 51,-24 72,-36c4,-1 4,-1 4,-1c0,-1 -3,1 -6,2c-20,11 -50,25 -72,36l-4,1l0,-16c0,-8 0,-16 0,-16c0,0 2,-1 5,-2c37,-15 79,-33 118,-51c23,-11 49,-25 70,-36c18,-9 37,-19 53,-29c3,-1 5,-3 5,-3c0,0 0,4 0,8l0,8l-4,3c-23,13 -57,34 -76,45c-3,1 -4,2 -4,2c0,1 1,0 18,-10c16,-10 27,-16 39,-23l8,-5l3,0c2,0 3,0 2,0c0,1 -17,11 -26,16c-12,7 -30,18 -39,23c-2,1 -3,2 -3,2c0,0 13,-8 26,-15c17,-10 38,-23 52,-31c2,-2 4,-3 4,-3c0,0 0,5 0,11l0,11l-5,4c-8,4 -28,16 -38,22c-57,34 -117,66 -171,93c-14,6 -37,17 -37,17c0,0 0,-5 0,-10zm86,-54c21,-11 48,-25 71,-38c13,-7 12,-7 12,-7l-3,0l-3,0l2,-1c1,-1 1,-1 1,-1l0,0c0,0 -3,1 -7,4c-25,14 -54,30 -76,41c0,1 -1,1 -1,1c0,1 0,1 2,1l3,0l-2,1c-1,0 -2,1 -2,1l0,0c0,0 1,-1 3,-2z" fill="rgb(255,255,255)"/>
    </g>
   </g>
   <g id="svg_102" class="com.sun.star.drawing.ClosedBezierShape">
    <g id="id46">
     <path id="svg_103" d="m1369.36411,1153.181838c-59,-32 -120,-68 -161,-94c-5,-3 -5,-3 -5,-3c0,-1 0,-1 1,-1l1,0c0,0 1,1 10,6c43,27 96,58 150,88c5,3 10,6 10,6c0,0 -1,0 -1,-1c-1,0 -3,0 -3,0l1,1c1,0 0,0 -3,-2z" fill="rgb(255,255,255)"/>
    </g>
   </g>
   <g id="svg_104" class="com.sun.star.drawing.ClosedBezierShape">
    <g id="id47">
     <path id="svg_105" d="m1263.36411,1541.181838l0,-1l5,-1c3,-1 8,-3 11,-5c6,-2 7,-2 9,-2c1,0 1,0 1,0c-1,1 -14,5 -19,7c-2,1 -5,2 -6,2l-1,1l0,-1z" fill="rgb(255,255,255)"/>
    </g>
   </g>
   <g id="svg_106" class="com.sun.star.drawing.ClosedBezierShape">
    <g id="id48">
     <path id="svg_107" d="m898.36411,824.181838c-10,-6 -30,-17 -40,-23c-11,-5 -25,-11 -38,-17c-36,-14 -73,-23 -103,-25c-4,-1 -4,-1 -4,-1l4,0c48,3 108,23 162,54c2,1 6,4 11,7c4,2 8,5 9,5c1,1 2,1 2,1l0,0c0,0 -2,0 -3,-1z" fill="rgb(255,255,255)"/>
    </g>
   </g>
   <g id="svg_108" class="com.sun.star.drawing.ClosedBezierShape">
    <g id="id49">
     <path id="svg_109" d="m846.36411,799.181838c-5,-2 -16,-7 -21,-9c-2,-1 -4,-2 -4,-2c0,0 7,3 13,6c7,3 16,7 16,7c0,0 -2,0 -4,-2z" fill="rgb(255,255,255)"/>
    </g>
   </g>
   <g id="svg_110" class="com.sun.star.drawing.ClosedBezierShape">
    <g id="id50">
     <path id="svg_111" d="m713.36411,833.181838l0,-72l1,0c1,0 3,0 5,0c35,3 75,14 125,38c14,6 26,12 64,32c24,12 28,14 29,14c0,0 19,-15 25,-19l2,-3l0,41l0,40l-125,0l-126,0l0,-71z" fill="rgb(255,255,255)"/>
    </g>
   </g>
   <g id="svg_112" class="com.sun.star.drawing.ClosedBezierShape">
    <g id="id51">
     <path id="svg_113" d="m520.36411,891.181838l0,0c-1,0 -1,-2 -1,-4c2,-6 9,-19 21,-33c14,-18 30,-37 45,-50c12,-10 24,-19 36,-25c6,-4 15,-8 16,-8l-3,1c-9,5 -20,11 -30,18c-15,10 -30,25 -45,42c-19,20 -36,44 -39,54c-1,2 -1,4 0,4c0,1 1,1 3,1c4,0 11,-2 27,-5l5,-1l-2,0c-1,0 -1,0 2,0c2,0 3,0 3,0c-4,1 -6,1 -10,2c-10,2 -17,3 -23,4c-1,0 -4,0 -5,0z" fill="rgb(255,255,255)"/>
    </g>
   </g>
   <g id="svg_114" class="com.sun.star.drawing.ClosedBezierShape">
    <g id="id52">
     <path id="svg_115" d="m523.36411,884.181838c0,-1 1,-3 3,-6c2,-3 5,-8 5,-8c1,0 -8,13 -8,14z" fill="rgb(255,255,255)"/>
    </g>
   </g>
   <g id="svg_116" class="com.sun.star.drawing.ClosedBezierShape">
    <g id="id53">
     <path id="svg_117" d="m708.36411,960.181838c-5,-4 -19,-13 -25,-17c-35,-24 -57,-33 -85,-35c-5,-1 -8,-1 -16,-1c-9,0 -13,1 -33,2c-5,0 -10,1 -17,1c-6,0 -16,0 -20,0c-9,-1 -14,-4 -16,-7c-2,-5 -1,-11 4,-22c3,-6 9,-17 13,-23c8,-14 18,-27 30,-40c8,-9 18,-19 27,-27c8,-7 17,-15 24,-19l1,-1l20,0l20,0l-2,1c-5,2 -12,6 -17,9c-11,6 -23,15 -34,25c-5,5 -15,15 -15,16c0,0 2,-3 5,-6c17,-16 30,-27 46,-36c5,-3 14,-7 17,-9c2,0 1,0 -2,1c-17,8 -32,19 -49,33c-4,4 -7,7 -7,7c0,0 1,-1 2,-2c18,-17 37,-30 57,-38l1,-1l5,0l5,0l-4,1c-14,5 -23,10 -35,19c-8,6 -17,13 -27,22c-5,4 -10,10 -10,10l3,-3c11,-11 25,-22 36,-30c5,-4 11,-7 15,-10c4,-2 13,-5 20,-8l3,-1l40,0l40,0l0,89c0,70 0,88 0,88c0,0 -2,-1 -4,-3c-31,-21 -60,-39 -78,-48c-4,-2 -6,-3 -9,-4c-12,-5 -24,-7 -39,-8c-3,0 -4,0 -2,0c16,2 29,6 43,11c8,3 16,7 22,10c11,6 33,21 58,39c4,2 7,5 8,5l1,2l0,5l0,5l-9,0l-9,0l-2,-2zm-180,-70c6,0 11,-1 20,-3c5,-1 8,-2 11,-2l2,0l-9,0c-21,0 -29,0 -28,0c1,0 15,0 23,0l6,0l-6,1c-15,3 -22,5 -25,4c-2,0 -2,0 -2,-2c0,-6 13,-26 30,-47c2,-1 3,-3 3,-4c2,-1 2,-1 2,-1c-1,0 -8,9 -13,15c-13,17 -22,32 -22,37c-1,2 0,2 1,2c4,1 12,0 27,-4c5,-1 7,-1 8,-1l1,0l-2,0c-1,0 -5,1 -8,2c-14,3 -20,4 -24,4c-3,0 -3,-1 -4,-1c0,-1 0,-2 0,-3c1,-6 11,-21 24,-37c3,-5 9,-12 11,-14l0,0c0,-1 -1,0 -5,5c-17,21 -30,40 -30,47c0,2 0,2 1,3c1,0 5,0 8,-1zm-4,-7c10,-17 10,-18 13,-22c4,-6 9,-12 16,-20c2,-1 3,-3 3,-3l0,0l0,0c0,0 1,-1 2,-2c1,-1 4,-4 7,-7c5,-5 6,-6 6,-6c-1,0 -11,10 -14,14c-6,6 -12,13 -15,17c-8,10 -21,31 -19,31c0,0 0,-1 1,-2zm31,-48c2,-2 9,-10 11,-12c1,-1 1,-1 1,-1c0,0 0,1 -1,1c-3,3 -11,13 -11,13l0,-1zm1,-1c3,-4 7,-8 9,-10c1,-2 2,-2 2,-2c-1,0 -7,7 -11,11c-2,2 -2,2 -2,2c1,0 1,0 2,-1z" fill="rgb(255,255,255)"/>
    </g>
   </g>
   <g id="svg_118" class="com.sun.star.drawing.ClosedBezierShape">
    <g id="id54">
     <path id="svg_119" d="m713.36411,963.181838c-14,-9 -26,-18 -34,-23c-33,-22 -54,-30 -81,-32c-5,-1 -8,-1 -16,-1c-10,0 -12,0 -33,2c-20,1 -31,1 -39,0c-8,-1 -13,-4 -15,-8c0,-1 0,-1 0,-3c0,-3 0,-4 1,-7c1,-5 5,-12 11,-24c8,-14 16,-26 27,-39c9,-12 21,-24 32,-34l1,-1l15,0l16,0l-2,1c-4,4 -10,8 -15,13c-4,3 -14,14 -14,14c0,0 2,-2 6,-6c9,-9 15,-14 23,-20c1,-1 2,-2 2,-2c1,0 0,0 -1,1c-6,5 -12,10 -17,15c-2,2 -3,3 -3,3l1,-1c6,-6 13,-12 19,-17l2,-1l3,0l3,0l-3,2c-9,7 -20,16 -30,26c-1,2 -3,3 -3,3c-1,1 -11,11 -13,14c-6,5 -12,12 -15,16c-5,7 -13,20 -17,27c-1,2 -2,3 -2,3c1,1 1,0 6,-9c5,-8 6,-10 8,-13c4,-6 10,-13 18,-22c1,-1 2,-2 2,-2l0,0c0,0 2,-2 3,-4c4,-4 12,-11 12,-11c0,0 2,-2 3,-3c9,-9 18,-17 27,-23c2,-2 4,-3 4,-4l0,0l58,0l57,0l0,75c0,41 0,74 0,74c0,0 -2,-1 -4,-3c-33,-22 -62,-40 -77,-46c-8,-3 -20,-6 -31,-7c-4,-1 -13,-1 -13,-1c0,0 1,0 3,0c7,1 14,3 21,4c16,4 32,11 43,17c10,6 30,20 56,38l2,1l0,12c0,6 0,11 0,11c0,0 -3,-2 -7,-5zm-188,-73c6,0 13,-1 22,-3c5,-1 8,-2 11,-2l3,-1l-8,0c-28,1 -29,1 -29,1c1,0 15,0 24,0l5,0l-7,1c-14,3 -19,4 -23,4c-3,0 -4,0 -3,-2c0,-2 0,-3 2,-7c5,-10 16,-25 29,-41c2,-2 3,-4 3,-4l-2,2c-16,19 -29,39 -32,47c0,1 -1,2 -1,3c0,1 0,1 1,2c1,1 8,0 28,-4c5,-1 7,-1 8,-1l1,0l-3,0c-1,0 -5,1 -8,2c-12,2 -19,3 -23,3c-3,0 -3,0 -4,-1c-2,-4 10,-23 28,-45c2,-2 4,-5 5,-6c1,-2 2,-3 2,-3c0,0 -2,2 -6,7c-18,22 -30,41 -29,47c0,1 1,2 3,2c1,0 2,0 3,-1zm31,-55c2,-4 5,-7 8,-9c3,-4 3,-5 3,-4c0,0 -6,7 -10,11c-1,1 -2,2 -2,2c0,0 -1,1 0,1c0,0 0,-1 1,-1zm2,-3c1,-2 4,-5 6,-7c1,-2 3,-3 3,-3c0,-1 0,-1 0,-1c-1,0 -13,14 -13,14c0,0 1,0 4,-3z" fill="rgb(255,255,255)"/>
    </g>
   </g>
   <g id="svg_120" class="com.sun.star.drawing.ClosedBezierShape">
    <g id="id55">
     <path id="svg_121" d="m713.36411,964.181838c-30,-22 -48,-34 -64,-42c-17,-8 -33,-13 -51,-14c-5,-1 -8,-1 -16,-1c-10,0 -12,0 -33,2c-20,1 -31,1 -39,0c-6,-1 -10,-2 -12,-5c-2,-2 -3,-4 -3,-7c0,-6 4,-14 12,-30c9,-15 18,-28 29,-42c9,-10 20,-22 30,-31l1,-1l15,0l16,0l-1,1c-8,6 -15,12 -23,20c-4,3 -7,7 -7,7c0,0 3,-3 6,-6c9,-9 15,-14 23,-20c1,-1 2,-2 2,-2c1,0 0,1 -2,2c-2,2 -5,4 -6,5c-5,4 -12,11 -13,12c0,0 0,-1 1,-1c7,-7 12,-11 19,-16l2,-2l3,0l3,0l-3,2c-10,8 -20,17 -30,26c-2,2 -3,3 -3,3c0,0 -13,13 -15,15c-4,5 -10,11 -12,15c-6,7 -16,23 -19,28c0,2 -1,2 0,2c0,0 1,-3 4,-6c7,-12 7,-13 10,-18c4,-5 9,-11 15,-18c2,-2 4,-4 4,-4l0,0c0,0 2,-2 5,-5c5,-5 9,-10 12,-12c13,-12 19,-18 28,-25l4,-3l58,0l57,0l0,75c0,41 0,74 0,74c0,0 -2,-1 -5,-3c-34,-23 -63,-40 -76,-46c-6,-2 -12,-4 -18,-5c-3,-1 -4,-1 -4,-1l1,0c7,2 14,4 21,7c15,6 45,24 77,46l4,3l0,1c0,1 0,1 0,1c0,0 -5,-3 -10,-7c-25,-17 -41,-28 -51,-33c-7,-4 -16,-9 -26,-12c-6,-2 -17,-5 -16,-4c0,0 1,0 3,1c7,1 17,5 24,8c6,2 12,5 16,7c10,6 31,20 58,39l2,1l0,12c0,6 0,11 0,11c0,0 -3,-2 -7,-4zm-186,-74c6,0 12,-2 22,-4c3,0 8,-1 10,-1c1,0 1,-1 1,-1l-35,1c-1,0 8,0 18,0c6,0 10,0 10,0c0,0 -15,3 -18,3c-3,1 -7,1 -9,2c0,0 -2,0 -3,0c-3,0 -3,0 -3,-2c0,-2 0,-4 2,-7c3,-6 8,-14 16,-24c4,-6 11,-14 15,-20c1,-1 1,-1 1,-1c0,0 -2,2 -5,6c-13,16 -23,30 -27,39c-2,4 -2,5 -2,7c-1,1 -1,1 0,2c1,1 9,0 28,-4c5,-1 7,-1 8,-1l1,0l-2,0c-2,0 -6,1 -9,2c-12,2 -19,3 -23,3c-3,0 -3,0 -4,-1c-2,-4 12,-26 33,-51c2,-3 2,-3 2,-3c0,0 -10,12 -15,19c-14,19 -22,32 -20,36l1,0c1,1 5,0 7,0zm90,-1l0,-1c-1,0 -2,0 -4,0c-2,-1 -6,-1 -8,-2c-2,0 -3,-1 -3,-1c2,0 10,1 13,2c2,0 3,0 2,0c0,0 -6,-1 -10,-1c-5,-1 -12,-1 -12,-1l0,0c0,0 2,0 4,0c4,1 11,2 14,3c4,1 4,1 4,1zm-59,-57c1,-2 4,-5 5,-6c4,-4 5,-5 3,-3c-1,1 -7,7 -9,10c-1,1 -2,2 -2,2l0,1c0,0 1,-2 3,-4zm1,-2c2,-2 5,-5 6,-6c1,-2 2,-3 2,-3l-1,1c0,0 -2,2 -3,3c-3,3 -8,9 -9,10c0,0 1,0 5,-5z" fill="rgb(255,255,255)"/>
    </g>
   </g>
   <g id="svg_122" class="com.sun.star.drawing.ClosedBezierShape">
    <g id="id56">
     <path id="svg_123" d="m717.36411,967.181838c-16,-12 -27,-20 -36,-26c-28,-18 -47,-27 -67,-31c-11,-2 -22,-3 -37,-3c-8,0 -9,0 -28,2c-15,1 -23,1 -30,1c-5,0 -7,-1 -10,-1c-9,-1 -13,-4 -14,-9c-1,-5 1,-12 7,-23c3,-7 9,-17 13,-23c13,-20 30,-41 50,-59l2,-2l15,0l16,0l-1,1c-6,4 -12,9 -17,14c-5,4 -13,13 -13,13c0,0 3,-3 6,-6c8,-8 13,-12 19,-17c4,-3 6,-5 6,-5c1,0 0,1 -3,3c-6,5 -12,10 -16,14c-2,2 -1,1 2,-1c5,-5 10,-10 16,-14l2,-2l3,0l3,0l-1,1c0,0 -2,1 -3,2c-13,10 -29,25 -44,40c-5,6 -11,12 -15,17c-3,5 -11,16 -16,24c-2,4 -4,8 -3,7c0,0 2,-4 5,-8c5,-9 6,-10 8,-13c4,-6 9,-13 16,-21c3,-3 4,-4 4,-4l0,0c0,0 2,-2 5,-5c5,-5 9,-10 12,-13c11,-10 20,-17 29,-24l3,-3l58,0l57,0l0,75c0,41 0,74 0,74c0,0 -2,-1 -4,-2c-22,-15 -44,-29 -59,-38c-5,-2 -13,-7 -16,-8c-6,-3 -15,-5 -22,-7l-1,0l0,0l0,0c3,1 8,2 12,3c10,3 20,8 39,20c13,7 33,20 48,30l3,3l0,1l0,1l-1,0c-2,-2 -20,-14 -27,-19c-14,-10 -24,-16 -31,-20c-12,-7 -28,-14 -44,-17l0,0c0,0 1,0 3,1c8,2 17,5 24,8c6,2 12,5 16,7c10,6 31,20 58,39l2,1l0,12c0,6 0,11 0,11c0,0 -1,0 -3,-1zm-190,-77c6,0 11,-1 22,-4c2,0 5,-1 7,-1c5,-1 5,-1 -2,-1c-4,0 -11,1 -17,1c-6,0 -12,0 -12,0c-1,0 9,0 18,0c5,0 9,0 10,0c1,0 -15,3 -21,4c-4,1 -7,1 -9,1c-2,0 -3,0 -3,-1l0,-1l0,-1l0,1c0,1 0,1 0,1c0,1 1,1 2,1c3,0 11,-1 26,-4c5,-1 7,-1 8,-1l1,0l-2,0c-2,0 -6,1 -9,2c-9,2 -14,2 -19,3c-3,0 -7,0 -7,0c-1,0 -1,-3 0,-6c4,-9 16,-27 32,-46c2,-3 2,-3 2,-2c-1,0 -6,6 -10,11c-14,18 -24,33 -25,40c0,2 0,3 1,3c1,1 5,0 7,0zm90,-1c-1,-1 -4,-1 -4,-1l2,0c2,1 2,1 2,1zm-5,-1c0,0 -3,-1 -7,-2c-2,0 -3,-1 -3,-1c1,0 4,1 7,1c3,1 4,1 4,0c-1,0 -10,-1 -14,-1c-1,0 -2,0 -3,0c-2,0 -1,0 2,0c4,1 11,2 13,2c0,1 1,1 1,1zm5,-1l-4,-1l0,0c0,1 4,1 4,1zm-96,-3c1,-4 4,-9 8,-15c6,-9 14,-19 23,-30c1,-1 2,-3 2,-3c1,-1 -1,2 -5,7c-15,18 -26,35 -29,42c0,1 0,2 0,2l0,-1c0,-1 1,-2 1,-2zm37,-52c2,-2 4,-5 5,-6c4,-4 4,-4 2,-3c-2,3 -10,12 -10,12c0,1 0,1 3,-3zm0,-1c2,-2 5,-5 6,-6c2,-3 3,-4 3,-4c-1,0 -4,4 -8,9c-4,4 -5,5 -5,5c0,0 2,-2 4,-4z" fill="rgb(255,255,255)"/>
    </g>
   </g>
   <g id="svg_124" class="com.sun.star.drawing.ClosedBezierShape">
    <g id="id57">
     <path id="svg_125" d="m545.36411,849.181838l1,-1l0,0l0,1c-1,0 -1,0 -1,0z" fill="rgb(255,255,255)"/>
    </g>
   </g>
   <g id="svg_126" class="com.sun.star.drawing.ClosedBezierShape">
    <g id="id58">
     <path id="svg_127" d="m720.36411,968.181838c-3,-2 -23,-17 -31,-22c-38,-26 -61,-36 -89,-39c-6,0 -8,0 -18,0c-11,0 -13,0 -34,1c-30,2 -43,1 -49,-3c-4,-3 -5,-8 -2,-17c2,-5 5,-11 11,-22c9,-16 19,-30 32,-45c10,-12 21,-23 33,-34l1,-1l16,0l16,0l-1,1c-6,4 -13,10 -19,15c-5,4 -12,11 -16,15c-4,4 -3,3 3,-3c9,-8 16,-14 23,-20c5,-4 11,-8 11,-8c1,0 0,0 -2,2c-8,5 -19,15 -26,21c-1,2 -1,1 2,-1c6,-6 13,-11 19,-16c2,-2 6,-5 7,-5l1,-1l3,0l3,0l-1,1c-6,4 -16,11 -25,19c-6,5 -17,16 -17,16l3,-3c14,-13 28,-24 39,-32l1,-1l53,0l53,0l0,78c0,61 0,78 0,78c0,-1 -2,-2 -4,-3c-34,-23 -64,-41 -78,-47c-4,-1 -10,-3 -14,-4c-2,-1 -6,-1 -6,-1c-1,0 0,0 1,0c6,1 14,4 20,6c16,7 45,25 79,47l2,2l0,1c0,1 0,2 0,1c0,0 -4,-2 -8,-5c-31,-22 -47,-32 -57,-37c-8,-4 -20,-9 -29,-12c-4,-1 -9,-2 -9,-2l0,0c2,1 9,3 12,4c12,3 24,9 33,14c10,6 29,19 54,36l4,3l0,11c0,7 0,12 0,12zm-194,-78c4,-1 10,-2 17,-3c3,-1 6,-1 8,-2c2,0 4,0 6,-1c1,0 2,0 2,0c1,0 -26,0 -31,0c-2,0 -3,0 -2,0c1,0 13,0 21,0c3,0 6,0 6,0c1,0 -16,4 -19,4c-3,0 -6,1 -8,1l-1,0l1,0c2,0 5,0 9,-1c5,-1 19,-4 20,-4l1,0l1,0l-1,0c-1,1 -18,4 -20,4c-6,1 -14,2 -16,2c-1,-1 -1,-1 -1,-2c0,-2 1,-4 3,-9c5,-10 16,-24 30,-41c2,-3 3,-4 1,-3c-1,1 -4,6 -8,10c-19,24 -30,43 -25,45c1,0 3,0 6,0zm-2,-1c-1,0 -1,0 -2,0l1,0c1,0 1,0 1,0zm-3,0l0,0zm-1,0l0,-1l0,0c0,1 0,1 0,1zm97,-1c-1,0 -4,-1 -4,-1c-1,0 3,1 4,1zm-5,-1c0,0 -2,-1 -9,-2l-2,0l1,0c4,0 10,1 13,1c2,1 2,1 2,1c0,-1 -13,-2 -20,-3l-1,0l3,1c4,0 10,2 12,2c1,0 1,0 1,0zm-92,-2c1,-4 4,-9 9,-17c6,-9 13,-18 22,-29c2,-2 3,-4 3,-4c1,0 0,1 -3,4c-10,13 -20,26 -26,36c-3,4 -5,9 -5,11l0,-1zm6,-7c7,-12 8,-14 11,-17c4,-6 9,-12 15,-19c1,-2 3,-3 3,-4c1,0 6,-6 11,-11c3,-3 5,-5 5,-5c0,0 -13,13 -18,18c-4,4 -9,10 -11,13c-5,7 -16,23 -19,29c0,1 -1,2 0,1c0,0 1,-2 3,-5zm32,-47c2,-2 4,-4 5,-6c3,-3 4,-4 2,-2c-2,3 -10,11 -10,12l3,-4zm0,-1c2,-2 5,-5 6,-6c2,-3 3,-4 2,-3c-1,1 -8,9 -10,12c-1,1 -2,1 -2,1c1,0 2,-1 4,-4z" fill="rgb(255,255,255)"/>
    </g>
   </g>
   <g id="svg_128" class="com.sun.star.drawing.ClosedBezierShape">
    <g id="id59">
     <path id="svg_129" d="m718.36411,967.181838c-19,-14 -33,-24 -44,-31c-30,-19 -51,-27 -77,-29c-8,-1 -20,-1 -32,0c-2,0 -8,1 -13,1c-13,1 -20,1 -26,1c-16,0 -24,-1 -28,-5c-2,-2 -3,-4 -3,-7c0,-4 1,-8 4,-15c4,-7 11,-20 16,-28c14,-23 34,-45 57,-66l2,-2l16,0c9,0 16,0 16,0c0,0 0,1 -1,1c-8,5 -15,12 -23,18c-3,3 -9,10 -12,12c-3,3 -2,3 4,-3c10,-10 17,-17 26,-23c4,-3 7,-5 7,-5c1,0 0,0 0,1c-9,6 -20,15 -28,22c-1,2 0,0 3,-2c8,-8 18,-16 25,-20l1,-1l3,0l3,0l-1,0c-1,1 -6,5 -9,7c-9,7 -17,14 -27,23c-4,3 -6,6 -6,6c0,0 1,-1 3,-2c14,-14 28,-25 39,-33l1,-1l53,0l53,0l0,78c0,62 0,78 0,78c0,-1 -2,-2 -5,-3c-31,-22 -58,-38 -73,-45c-5,-2 -11,-4 -17,-6c-4,-1 -8,-2 -7,-1c0,0 1,0 2,0c7,2 14,4 21,7c11,5 30,16 53,31c5,3 19,12 24,16l2,1l0,1c0,1 0,2 0,1c0,0 -5,-3 -10,-6c-31,-22 -46,-32 -55,-36c-11,-6 -24,-10 -35,-13c-1,0 -3,-1 -3,-1l0,0c0,0 2,1 3,1c16,4 31,10 42,17c7,4 18,11 33,21c8,6 24,17 25,18c0,0 0,2 0,11l0,12l-2,-1zm-193,-77c3,0 6,-1 10,-1c3,-1 6,-2 16,-4c2,0 4,0 6,-1c1,0 2,0 2,0c0,0 -25,0 -30,0c-2,0 -3,0 -2,0c1,0 11,0 19,0c4,0 7,0 7,0c0,0 -16,3 -18,4c-1,0 -1,0 -1,0l20,-4c1,0 1,0 2,0l1,0l-1,0c-2,1 -18,4 -20,4c-7,1 -14,2 -16,2c-1,-1 -1,-1 -1,-2c0,-2 1,-4 3,-9c4,-7 11,-17 20,-29c1,-2 2,-3 2,-4c0,0 -5,8 -9,13c-7,10 -13,20 -15,25c-1,3 -1,5 0,6c1,0 3,0 5,0zm-1,-1c-1,0 -1,0 -2,0l1,0c1,0 1,0 1,0zm2,0l-1,0l1,0zm-6,0l0,-1l0,0c0,1 0,1 0,1zm8,0c1,0 0,0 -1,0c-1,0 -1,0 0,0l1,0zm1,0l0,0zm2,0c1,-1 2,-1 2,-1c0,0 -1,0 -2,1c-1,0 -1,0 -1,0l1,0zm2,-1c0,0 1,0 0,0zm83,0l-3,-1l1,1c1,0 3,0 2,0zm-4,-1c0,0 -5,-1 -8,-2c-1,0 -3,0 -3,0c0,0 2,0 4,0c4,0 10,1 12,2l0,0c0,-1 -10,-2 -18,-3c-4,0 -4,0 0,1c4,0 10,2 12,2c1,0 1,0 1,0zm-91,-5c4,-7 12,-19 22,-33c1,-1 2,-2 2,-2c0,0 1,-2 2,-3c3,-3 6,-8 7,-8l0,0c0,0 -1,1 -6,6c-12,15 -22,29 -26,38c-1,2 -2,5 -2,6l0,-1c0,-1 1,-2 1,-3zm3,-1c1,-1 3,-5 5,-8c5,-8 6,-10 9,-14c4,-6 8,-11 14,-18c2,-1 3,-3 3,-3c1,0 1,-1 2,-1c0,-1 0,-1 0,-1c0,0 -4,4 -9,9c-1,2 -1,2 -1,2l0,1c-1,0 -3,2 -6,6c-5,7 -14,22 -17,27c-1,2 -2,3 -1,3c0,0 0,-1 1,-3zm22,-37c1,-1 3,-3 5,-5c2,-3 2,-3 2,-3c-1,1 -9,10 -8,10c0,0 1,-1 1,-2zm14,-11c1,-1 4,-4 6,-6c3,-3 5,-5 5,-5c0,0 -1,0 -4,3c-5,6 -10,11 -10,11c0,0 2,-1 3,-3zm-6,2l0,0zm4,-4c2,-2 4,-4 5,-6c3,-2 4,-3 2,-2c-3,3 -10,11 -10,12l0,0c0,0 1,-2 3,-4zm1,-1c1,-2 4,-5 5,-6c2,-3 3,-3 2,-3c-1,1 -11,12 -11,13l-1,0l1,0c0,0 2,-2 4,-4z" fill="rgb(255,255,255)"/>
    </g>
   </g>
   <g id="svg_131" class="com.sun.star.drawing.ClosedBezierShape">
    <g id="id60">
     <path id="svg_132" d="m2202.36411,1075.681862l0,0l0,0c0,187 -45,346 -143,508c-97,162 -219,278 -388,372c-170,94 -336,136 -531,136c-196,0 -362,-42 -531,-136c-169,-94 -291,-210 -389,-372c-97,-162 -142,-321 -142,-508l0,0l0,0l0,-1c0,-187 45,-346 142,-508c98,-162 220,-278 389,-372c169,-93 335,-136 531,-136c195,0 361,43 531,136c169,94 291,210 388,372c98,162 143,321 143,508l0,1z" fill="rgb(27,42,140)"/>
    </g>
   </g>
   <g id="svg_133" class="Group">
    <g id="svg_134" class="com.sun.star.drawing.ClosedBezierShape">
     <g id="id61">
      <path id="svg_135" d="m354.36411,658.181838l33,-26c16,18 25,37 26,56c2,19 -3,37 -15,56c-15,23 -35,37 -61,40c-25,4 -52,-4 -80,-23c-30,-21 -48,-44 -55,-71c-7,-26 -2,-52 13,-76c14,-22 31,-34 53,-39c12,-2 27,-1 44,5l-14,41c-10,-4 -20,-5 -30,-2c-9,2 -17,9 -23,18c-8,13 -10,27 -6,41c4,15 17,30 38,44c23,16 41,23 56,22c15,-1 26,-8 34,-21c6,-9 8,-19 6,-30c-1,-11 -8,-23 -19,-35z" fill="rgb(255,255,255)"/>
     </g>
    </g>
    <g id="svg_136" class="com.sun.star.drawing.ClosedBezierShape">
     <g id="id62">
      <path id="svg_137" d="m467.36411,635.181838l-143,-164l64,-60c16,-15 29,-25 39,-29c9,-4 20,-4 31,-1c11,4 20,10 29,20c10,12 16,25 16,40c1,14 -5,28 -16,43c10,-2 19,-3 28,-2c9,1 22,4 40,10l46,15l-36,34l-53,-15c-19,-5 -31,-8 -37,-9c-5,0 -10,1 -15,2c-4,2 -10,6 -17,13l-6,6l60,68l-30,29zm-52,-123l22,-22c15,-13 23,-23 25,-27c3,-5 4,-10 3,-15c-1,-6 -3,-11 -8,-15c-5,-6 -10,-9 -15,-10c-6,-1 -12,1 -17,4c-3,2 -11,9 -23,21l-24,22l37,42z" fill="rgb(255,255,255)"/>
     </g>
    </g>
    <g id="svg_138" class="com.sun.star.drawing.PolyPolygonShape">
     <g id="id63">
      <path id="svg_139" d="m641.36411,482.181838l-32,-55l-77,-132l34,-22l144,80l-72,-125l32,-21l109,187l-35,23l-141,-78l71,123l-33,20z" fill="rgb(255,255,255)"/>
     </g>
    </g>
    <g id="svg_140" class="com.sun.star.drawing.PolyPolygonShape">
     <g id="id64">
      <path id="svg_141" d="m1004.36411,292.181838l-43,16l-32,-41l-78,29l0,53l-42,16l8,-235l41,-15l146,177zm-99,-55l-52,-66l-1,86l53,-20z" fill="rgb(255,255,255)"/>
     </g>
    </g>
    <g id="svg_142" class="com.sun.star.drawing.ClosedBezierShape">
     <g id="id65">
      <path id="svg_143" d="m1112.36411,220.181838l40,1c-1,15 2,26 8,34c6,7 15,12 27,13c13,2 24,0 31,-5c8,-5 13,-12 15,-20c1,-5 0,-9 -2,-13c-2,-4 -6,-8 -12,-11c-5,-3 -15,-7 -31,-14c-20,-8 -34,-17 -41,-27c-10,-13 -13,-29 -9,-46c2,-11 7,-21 15,-30c8,-9 18,-15 30,-18c12,-4 26,-5 41,-3c25,3 43,12 53,25c10,14 14,30 10,50l-41,-3c1,-11 -1,-20 -6,-25c-5,-6 -13,-9 -24,-11c-12,-1 -22,0 -29,4c-5,3 -9,7 -10,13c-1,5 0,10 3,14c5,5 16,12 35,19c18,8 32,15 40,21c8,7 14,15 18,25c3,10 3,22 0,35c-2,13 -8,24 -17,34c-8,10 -19,17 -32,21c-13,4 -28,4 -45,2c-26,-3 -44,-12 -55,-26c-11,-15 -15,-34 -12,-59z" fill="rgb(255,255,255)"/>
     </g>
    </g>
    <g id="svg_144" class="com.sun.star.drawing.ClosedBezierShape">
     <g id="id66">
      <path id="svg_145" d="m1323.36411,226.181838c3,-21 8,-39 17,-54c6,-10 14,-19 23,-27c9,-8 19,-14 29,-17c14,-5 29,-6 46,-4c30,3 53,15 69,36c15,21 21,50 16,85c-5,34 -18,61 -39,78c-20,18 -46,26 -76,23c-31,-3 -54,-15 -69,-36c-16,-22 -21,-49 -16,-84zm43,3c-4,24 -1,43 8,57c9,14 22,21 39,23c16,1 31,-4 43,-15c12,-11 20,-30 24,-55c3,-24 1,-43 -8,-56c-9,-13 -22,-21 -39,-22c-17,-2 -32,3 -44,14c-12,11 -20,29 -23,54z" fill="rgb(255,255,255)"/>
     </g>
    </g>
   </g>
   <path id="svg_158" d="m1284.358804,520.176607c-85.36432,35.45492 -135.27439,61.81925 -259.27439,169.81925c-18,13.99999 -96.81751,87.54486 -116.81751,98.54486c-73,-41 -150,-85 -237,-81c-81,0 -150,60 -189,127c-4,11 -19,30 -5,39c44,8 90,-2 133,11c49,25 96,57 139,92c7,16 -10,33 -14,49c-31,76 -65.72735,153 -70,238c-0.18184,81.18184 7.09081,175 61.27265,252.90897c59,74 143.72735,115.09103 240.72735,112.09103c144,5 278,-58 405,-119c114,-56 223,-120 325,-195c10,-7 25,-25 8,-34c-84,-45 -173,-82 -257,-127c-128.45449,-52.27287 -258.72713,-127.36368 -357,-215c-3,-9 82.272,-138.81686 114.54443,-165.99848c89.90963,-96.54595 107.91093,-135.27439 295.00152,-247.36541c23.5,-19 90.31773,-55.74979 111.5564,-69.11346c21.23868,-13.36368 42.35235,-26.97735 65.35235,-46.97735l-347.90875,94.72713zm-343.54595,688.72757c87,66 184,126 293,143c94,5 189,5 283,7c-136,67 -271,142 -420,175c-60,8 -141.18163,14.36368 -209.45428,-16.81794c-39.00064,-26.18315 -70.9094,-93.54661 -70.00021,-158.72823c8.72735,-87.63589 37.45449,-153.45383 61.45449,-193.45383c15,4 31,23 47,32c2.5,2 5,4 7.5,6c2.5,2 5,4 7.5,6z" fill="rgb(255,255,255)"/>
   <text font-style="normal" filter="url(#svg_159_blur)" font-weight="bold" xml:space="preserve" text-anchor="start" font-family="Euphoria, sans-serif" font-size="150" id="svg_159" y="1865.892152" x="709.578407" stroke-opacity="null" stroke-width="0" fill="#ffffff">TEMPS REEL</text>
  </g>
  <g id="svg_12">
   <g class="Master_Slide" id="id2">
    <g class="Background" id="bg-id2"/>
    <g class="BackgroundObjects" id="bo-id2"/>
   </g>
  </g>
 </g>
</svg>